<?xml version="1.0" encoding="UTF-8" standalone="no"?>
<!-- Created with Inkscape (http://www.inkscape.org/) -->

<svg
   xmlns:dc="http://purl.org/dc/elements/1.1/"
   xmlns:cc="http://creativecommons.org/ns#"
   xmlns:rdf="http://www.w3.org/1999/02/22-rdf-syntax-ns#"
   xmlns:svg="http://www.w3.org/2000/svg"
   xmlns="http://www.w3.org/2000/svg"
   xmlns:sodipodi="http://sodipodi.sourceforge.net/DTD/sodipodi-0.dtd"
   xmlns:inkscape="http://www.inkscape.org/namespaces/inkscape"
   width="92.918152mm"
   height="164.69583mm"
   viewBox="0 0 92.918152 164.69583"
   version="1.1"
   id="svg8"
   inkscape:version="0.92.3 (2405546, 2018-03-11)"
   sodipodi:docname="Mobilskärm.svg">
  <defs
     id="defs2" />
  <sodipodi:namedview
     id="base"
     pagecolor="#ffffff"
     bordercolor="#666666"
     borderopacity="1.0"
     inkscape:pageopacity="0.0"
     inkscape:pageshadow="2"
     inkscape:zoom="1.4233562"
     inkscape:cx="175.59336"
     inkscape:cy="311.23622"
     inkscape:document-units="mm"
     inkscape:current-layer="layer5"
     showgrid="false"
     inkscape:window-width="1920"
     inkscape:window-height="1117"
     inkscape:window-x="0"
     inkscape:window-y="29"
     inkscape:window-maximized="1"
     fit-margin-top="0"
     fit-margin-left="0"
     fit-margin-right="0"
     fit-margin-bottom="0"
     showguides="true"
     inkscape:guide-bbox="true" />
  <metadata
     id="metadata5">
    <rdf:RDF>
      <cc:Work
         rdf:about="">
        <dc:format>image/svg+xml</dc:format>
        <dc:type
           rdf:resource="http://purl.org/dc/dcmitype/StillImage" />
        <dc:title></dc:title>
      </cc:Work>
    </rdf:RDF>
  </metadata>
  <g
     transform="translate(-74.336311,-69.068748)"
     style="display:inline"
     id="g1970"
     inkscape:groupmode="layer"
     inkscape:label="Internet-bg"
     sodipodi:insensitive="true">
    <rect
       y="69.193748"
       x="74.461311"
       height="164.57083"
       width="92.604164"
       id="rect1938"
       style="opacity:1;vector-effect:none;fill:#f9f9f9;fill-opacity:1;fill-rule:evenodd;stroke:none;stroke-width:0.25;stroke-linecap:butt;stroke-linejoin:miter;stroke-miterlimit:4;stroke-dasharray:none;stroke-dashoffset:0;stroke-opacity:1" />
    <text
       id="text1944"
       y="73.562683"
       x="155.41724"
       style="font-style:normal;font-variant:normal;font-weight:normal;font-stretch:normal;font-size:3.88055563px;line-height:100%;font-family:'DejaVu Sans';-inkscape-font-specification:'DejaVu Sans';letter-spacing:0px;word-spacing:0px;display:inline;fill:#808080;fill-opacity:1;stroke:none;stroke-width:0.26458332"
       xml:space="preserve"><tspan
         style="font-style:normal;font-variant:normal;font-weight:normal;font-stretch:normal;font-family:'Droid Sans';-inkscape-font-specification:'Droid Sans';fill:#808080;stroke-width:0.26458332"
         y="73.562683"
         x="155.41724"
         id="tspan1942"
         sodipodi:role="line">17:53</tspan></text>
    <path
       style="fill:#808080;fill-opacity:1;stroke-width:0.21851747"
       id="path1946"
       d="m 153.06139,70.320591 h -0.36492 v -0.437034 h -0.87407 v 0.437034 h -0.36492 c -0.15952,0 -0.29063,0.131111 -0.29063,0.290629 v 3.349873 c 0,0.161702 0.13111,0.292813 0.29063,0.292813 h 1.60173 c 0.1617,0 0.29282,-0.131111 0.29282,-0.290629 V 70.61122 c 0,-0.159518 -0.13112,-0.290629 -0.29064,-0.290629 z"
       inkscape:connector-curvature="0" />
    <rect
       y="73.241524"
       x="151.48232"
       height="0.64438528"
       width="1.5265065"
       id="rect1948"
       style="opacity:1;vector-effect:none;fill:#f9f9f9;fill-opacity:1;fill-rule:evenodd;stroke:none;stroke-width:0.13269949;stroke-linecap:butt;stroke-linejoin:miter;stroke-miterlimit:4;stroke-dasharray:none;stroke-dashoffset:0;stroke-opacity:1" />
    <rect
       style="opacity:1;vector-effect:none;fill:#f9f9f9;fill-opacity:1;fill-rule:evenodd;stroke:none;stroke-width:0.13269949;stroke-linecap:butt;stroke-linejoin:miter;stroke-miterlimit:4;stroke-dasharray:none;stroke-dashoffset:0;stroke-opacity:1"
       id="rect1950"
       width="1.5265065"
       height="0.64438528"
       x="151.48232"
       y="72.361214" />
    <text
       id="text1956"
       y="73.228584"
       x="144.39236"
       style="font-style:normal;font-variant:normal;font-weight:normal;font-stretch:normal;font-size:2.82222223px;line-height:100%;font-family:'DejaVu Sans';-inkscape-font-specification:'DejaVu Sans';letter-spacing:0px;word-spacing:0px;display:inline;fill:#808080;fill-opacity:1;stroke:none;stroke-width:0.26458332"
       xml:space="preserve"><tspan
         style="font-style:normal;font-variant:normal;font-weight:normal;font-stretch:normal;font-family:'Droid Sans';-inkscape-font-specification:'Droid Sans';fill:#808080;stroke-width:0.26458332"
         y="73.228584"
         x="144.39236"
         id="tspan1954"
         sodipodi:role="line">53%</tspan></text>
    <path
       style="display:inline;fill:#808080;fill-opacity:1;stroke-width:0.2011068"
       id="path1958"
       d="m 138.59801,74.270804 h 4.02213 v -4.022136 z"
       inkscape:connector-curvature="0" />
    <path
       inkscape:connector-curvature="0"
       id="path1960"
       d="m 140.02433,72.083743 v 2.456846"
       style="display:inline;opacity:1;vector-effect:none;fill:none;fill-opacity:1;stroke:#f9f9f9;stroke-width:0.40000001;stroke-linecap:butt;stroke-linejoin:miter;stroke-miterlimit:4;stroke-dasharray:none;stroke-dashoffset:0;stroke-opacity:1" />
    <path
       style="display:inline;fill:#808080;stroke-width:0.17650597"
       id="path1962"
       d="m 132.69663,70.798922 0.35301,0.353012 c 0.87724,-0.877235 2.29988,-0.877235 3.17711,0 l 0.35302,-0.353012 c -1.07139,-1.071392 -2.80998,-1.071392 -3.88314,0 z m 1.41205,1.412048 0.52952,0.529518 0.52952,-0.529518 c -0.29124,-0.293001 -0.76604,-0.293001 -1.05904,0 z m -0.70602,-0.706025 0.35301,0.353013 c 0.48715,-0.487157 1.2779,-0.487157 1.76506,0 l 0.35301,-0.353013 c -0.68131,-0.681312 -1.78801,-0.681312 -2.47108,0 z"
       inkscape:connector-curvature="0" />
    <path
       style="display:inline;fill:#808080;stroke-width:0.23117463"
       id="path1964"
       d="m 125.56612,72.850405 h 0.46235 v -1.387048 h -0.46235 z m 0.69352,0.462349 h 0.46235 v -2.311747 h -0.46235 z m 4.39232,-1.849397 v 1.387048 h 0.46235 v -1.387048 z m -0.69353,1.849397 h 0.46236 v -2.311747 h -0.46236 z m -0.57793,-3.236445 h -2.08058 c -0.19187,0 -0.34675,0.154887 -0.34675,0.346762 v 3.46762 c 0,0.191874 0.15488,0.346762 0.34675,0.346762 h 2.08058 c 0.19188,0 0.34676,-0.154888 0.34676,-0.346762 v -3.46762 c 0,-0.191875 -0.15488,-0.346762 -0.34676,-0.346762 z m -0.11559,3.698794 h -1.84939 v -3.236444 h 1.84939 z"
       inkscape:connector-curvature="0" />
    <path
       sodipodi:nodetypes="cccccccc"
       inkscape:connector-curvature="0"
       id="path1966"
       d="m 133.91472,73.72772 v -0.760543 l 0.45048,-0.0072 v 0.76779 h 0.25421 l -0.45976,0.569803 -0.4437,-0.569803 z"
       style="display:inline;opacity:1;vector-effect:none;fill:#808080;fill-opacity:1;stroke:none;stroke-width:0.09891052;stroke-linecap:butt;stroke-linejoin:miter;stroke-miterlimit:4;stroke-dasharray:none;stroke-dashoffset:0;stroke-opacity:1" />
    <path
       style="display:inline;opacity:1;vector-effect:none;fill:#808080;fill-opacity:1;stroke:none;stroke-width:0.09891052;stroke-linecap:butt;stroke-linejoin:miter;stroke-miterlimit:4;stroke-dasharray:none;stroke-dashoffset:0;stroke-opacity:1"
       d="m 135.47898,73.425072 v 0.760543 l -0.45048,0.0072 v -0.76779 h -0.25421 l 0.45976,-0.569803 0.4437,0.569803 z"
       id="path1968"
       inkscape:connector-curvature="0"
       sodipodi:nodetypes="cccccccc" />
    <path
       inkscape:connector-curvature="0"
       id="path1975"
       d="M 74.461307,90.549396 H 167.25446"
       style="display:inline;opacity:1;vector-effect:none;fill:none;fill-opacity:1;stroke:#b3b3b3;stroke-width:0.25;stroke-linecap:butt;stroke-linejoin:miter;stroke-miterlimit:4;stroke-dasharray:none;stroke-dashoffset:0;stroke-opacity:1" />
    <path
       style="display:inline;opacity:1;vector-effect:none;fill:none;fill-opacity:1;stroke:#b3b3b3;stroke-width:0.25;stroke-linecap:butt;stroke-linejoin:miter;stroke-miterlimit:4;stroke-dasharray:none;stroke-dashoffset:0;stroke-opacity:1"
       d="M 74.461307,222.84114 H 167.25446"
       id="path1979"
       inkscape:connector-curvature="0" />
    <g
       id="g2038"
       transform="matrix(0.26458333,0,0,0.26458333,81.16949,224.47573)">
      <path
         id="path2024"
         d="M 0,0 H 24 V 24 H 0 Z"
         inkscape:connector-curvature="0"
         style="fill:none" />
      <path
         id="path2026"
         d="M 15.41,16.59 10.83,12 15.41,7.41 14,6 l -6,6 6,6 z"
         inkscape:connector-curvature="0" />
    </g>
    <g
       id="g2097"
       transform="matrix(0.26458333,0,0,0.26458333,95.767559,224.60177)">
      <path
         id="path2083"
         d="M 0,0 H 24 V 24 H 0 Z"
         inkscape:connector-curvature="0"
         style="fill:none" />
      <path
         id="path2085"
         d="M 8.59,16.59 13.17,12 8.59,7.41 10,6 l 6,6 -6,6 z"
         inkscape:connector-curvature="0" />
    </g>
    <g
       id="g2156"
       transform="matrix(0.26458333,0,0,0.26458333,153.98819,82.387485)">
      <path
         id="path2142"
         d="M 0,0 H 24 V 24 H 0 Z"
         inkscape:connector-curvature="0"
         style="fill:none" />
      <path
         id="path2144"
         d="M 17.65,6.35 C 16.2,4.9 14.21,4 12,4 7.58,4 4.01,7.58 4.01,12 c 0,4.42 3.57,8 7.99,8 3.73,0 6.84,-2.55 7.73,-6 H 17.65 C 16.83,16.33 14.61,18 12,18 8.69,18 6,15.31 6,12 6,8.69 8.69,6 12,6 c 1.66,0 3.14,0.69 4.22,1.78 L 13,11 h 7 V 4 Z"
         inkscape:connector-curvature="0" />
    </g>
    <g
       id="g2274"
       transform="matrix(0.22972953,0,0,0.22972953,140.07296,225.47136)">
      <path
         id="path2260"
         d="M 0,0 H 24 V 24 H 0 Z"
         inkscape:connector-curvature="0"
         style="fill:none" />
      <path
         id="path2262"
         d="m 19,18 2,1 V 3 C 21,1.9 20.1,1 19,1 H 8.99 C 7.89,1 7,1.9 7,3 h 10 c 1.1,0 2,0.9 2,2 z M 15,5 H 5 C 3.9,5 3,5.9 3,7 v 16 l 7,-3 7,3 V 7 C 17,5.9 16.1,5 15,5 Z"
         inkscape:connector-curvature="0" />
    </g>
    <g
       id="g2333"
       transform="matrix(0.26458333,0,0,0.26458333,124.9637,224.85384)">
      <path
         id="path2319"
         d="M 0,0 H 24 V 24 H 0 Z"
         inkscape:connector-curvature="0"
         style="fill:none" />
      <path
         id="path2321"
         d="m 10,20 v -6 h 4 v 6 h 5 v -8 h 3 L 12,3 2,12 h 3 v 8 z"
         inkscape:connector-curvature="0" />
    </g>
    <path
       inkscape:connector-curvature="0"
       d="m 84.374206,87.450596 1.635125,0.986896 -0.433917,-1.860021 1.444625,-1.251479 -1.902354,-0.161396 -0.743479,-1.754187 -0.743479,1.754187 -1.902354,0.161396 1.444625,1.251479 -0.433917,1.860021 z"
       id="path2384"
       style="fill:#ffcc00;stroke-width:0.26458332" />
    <g
       id="g2456"
       transform="matrix(0.26458333,0,0,0.26458333,154.15983,224.97988)">
      <path
         id="path2442"
         d="M 0,0 H 24 V 24 H 0 Z"
         inkscape:connector-curvature="0"
         style="fill:none" />
      <path
         id="path2444"
         d="M 3,18 H 21 V 16 H 3 Z M 3,13 H 21 V 11 H 3 Z M 3,6 V 8 H 21 V 6 Z"
         inkscape:connector-curvature="0" />
    </g>
    <g
       id="g2470"
       transform="translate(9.1655945,0.29680662)">
      <rect
         style="opacity:1;vector-effect:none;fill:none;fill-opacity:1;fill-rule:evenodd;stroke:#000000;stroke-width:0.40000001;stroke-linecap:butt;stroke-linejoin:miter;stroke-miterlimit:4;stroke-dasharray:none;stroke-dashoffset:0;stroke-opacity:1"
         id="rect2464"
         width="4.5542302"
         height="3.0671341"
         x="102.62709"
         y="225.92139"
         rx="0.32860479"
         ry="0.32860479" />
      <rect
         ry="0.32860479"
         rx="0.32860479"
         y="226.97971"
         x="101.56875"
         height="3.0671341"
         width="4.5542302"
         id="rect2458"
         style="opacity:1;vector-effect:none;fill:#f9f9f9;fill-opacity:1;fill-rule:evenodd;stroke:#000000;stroke-width:0.40000001;stroke-linecap:butt;stroke-linejoin:miter;stroke-miterlimit:4;stroke-dasharray:none;stroke-dashoffset:0;stroke-opacity:1" />
      <text
         id="text2462"
         y="229.5351"
         x="102.25147"
         style="font-style:normal;font-variant:normal;font-weight:normal;font-stretch:normal;font-size:2.82222223px;line-height:100%;font-family:'Droid Sans';-inkscape-font-specification:'Droid Sans';letter-spacing:0px;word-spacing:0px;fill:#000000;fill-opacity:1;stroke:none;stroke-width:0.26458332"
         xml:space="preserve"><tspan
           style="stroke-width:0.26458332"
           y="229.5351"
           x="102.25147"
           id="tspan2460"
           sodipodi:role="line">12</tspan></text>
    </g>
    <text
       xml:space="preserve"
       style="font-style:normal;font-variant:normal;font-weight:normal;font-stretch:normal;font-size:3.88055563px;line-height:100%;font-family:'Droid Sans';-inkscape-font-specification:'Droid Sans';letter-spacing:0px;word-spacing:0px;fill:#000000;fill-opacity:1;stroke:none;stroke-width:0.26458332"
       x="111.58562"
       y="87.814346"
       id="text2474"><tspan
         sodipodi:role="line"
         id="tspan2472"
         x="111.58562"
         y="87.814346"
         style="stroke-width:0.26458332">192.168.5.1</tspan></text>
  </g>
  <g
     inkscape:groupmode="layer"
     id="layer5"
     inkscape:label="Internet text 1">
    <text
       xml:space="preserve"
       style="font-style:normal;font-variant:normal;font-weight:normal;font-stretch:normal;font-size:6.3499999px;line-height:100%;font-family:'Droid Sans';-inkscape-font-specification:'Droid Sans';letter-spacing:0px;word-spacing:0px;fill:#000000;fill-opacity:1;stroke:none;stroke-width:0.26458332"
       x="6.6919293"
       y="36.745914"
       id="text2486"><tspan
         sodipodi:role="line"
         id="tspan2484"
         x="6.6919293"
         y="36.745914"
         style="font-style:normal;font-variant:normal;font-weight:bold;font-stretch:normal;font-family:'DejaVu Serif';-inkscape-font-specification:'DejaVu Serif Bold';stroke-width:0.26458332">Inställningar</tspan></text>
    <text
       xml:space="preserve"
       style="font-style:normal;font-variant:normal;font-weight:normal;font-stretch:normal;font-size:3.52777767px;line-height:125%;font-family:'Droid Sans';-inkscape-font-specification:'Droid Sans';letter-spacing:0px;word-spacing:0px;fill:#000000;fill-opacity:1;stroke:none;stroke-width:0.26458332"
       x="6.5060425"
       y="46.298061"
       id="text2490"><tspan
         sodipodi:role="line"
         id="tspan2488"
         x="6.5060425"
         y="46.298061"
         style="font-style:normal;font-variant:normal;font-weight:normal;font-stretch:normal;font-family:'DejaVu Serif';-inkscape-font-specification:'DejaVu Serif';stroke-width:0.26458332">Välkommen till MRC-enheten med namn:</tspan><tspan
         sodipodi:role="line"
         x="6.5060425"
         y="50.712311"
         style="font-style:normal;font-variant:normal;font-weight:normal;font-stretch:normal;font-family:'DejaVu Serif';-inkscape-font-specification:'DejaVu Serif';stroke-width:0.26458332"
         id="tspan2492">'MRC-client'</tspan><tspan
         sodipodi:role="line"
         x="6.5060425"
         y="55.12656"
         style="font-style:normal;font-variant:normal;font-weight:normal;font-stretch:normal;font-family:'DejaVu Serif';-inkscape-font-specification:'DejaVu Serif';stroke-width:0.26458332"
         id="tspan2510" /><tspan
         sodipodi:role="line"
         x="6.5060425"
         y="59.536282"
         style="font-style:normal;font-variant:normal;font-weight:normal;font-stretch:normal;font-family:'DejaVu Serif';-inkscape-font-specification:'DejaVu Serif';stroke-width:0.26458332"
         id="tspan2498">På sidan Inställningar kan du bestämma hur</tspan><tspan
         sodipodi:role="line"
         x="6.5060425"
         y="63.950535"
         style="font-style:normal;font-variant:normal;font-weight:normal;font-stretch:normal;font-family:'DejaVu Serif';-inkscape-font-specification:'DejaVu Serif';stroke-width:0.26458332"
         id="tspan2516">just denna MRC-klient ska fungera.&quot;;</tspan><tspan
         sodipodi:role="line"
         x="6.5060425"
         y="68.364792"
         style="font-style:normal;font-variant:normal;font-weight:normal;font-stretch:normal;font-family:'DejaVu Serif';-inkscape-font-specification:'DejaVu Serif';stroke-width:0.26458332"
         id="tspan2500" /><tspan
         sodipodi:role="line"
         x="6.5060425"
         y="72.774513"
         style="font-style:normal;font-variant:normal;font-weight:normal;font-stretch:normal;font-family:'DejaVu Serif';-inkscape-font-specification:'DejaVu Serif';stroke-width:0.26458332"
         id="tspan2502">Möjligheten att ändra dessa inställningar är</tspan><tspan
         sodipodi:role="line"
         x="6.5060425"
         y="77.188759"
         style="font-style:normal;font-variant:normal;font-weight:normal;font-stretch:normal;font-family:'DejaVu Serif';-inkscape-font-specification:'DejaVu Serif';stroke-width:0.26458332"
         id="tspan2506">alltid tillgänglig de första 30 sekunderna</tspan><tspan
         sodipodi:role="line"
         x="6.5060425"
         y="81.603012"
         style="font-style:normal;font-variant:normal;font-weight:normal;font-stretch:normal;font-family:'DejaVu Serif';-inkscape-font-specification:'DejaVu Serif';stroke-width:0.26458332"
         id="tspan2508">efter start av enheten.</tspan></text>
    <path
       style="opacity:1;vector-effect:none;fill:#0000ff;fill-opacity:1;stroke:#0000ff;stroke-width:0.25;stroke-linecap:butt;stroke-linejoin:miter;stroke-miterlimit:4;stroke-dasharray:none;stroke-dashoffset:0;stroke-opacity:1"
       d="M 22.306433,60.053697 H 46.285848"
       id="path2520"
       inkscape:connector-curvature="0" />
    <text
       id="text2540"
       y="59.561756"
       x="22.65662"
       style="font-style:normal;font-variant:normal;font-weight:normal;font-stretch:normal;font-size:3.52777767px;line-height:125%;font-family:'Droid Sans';-inkscape-font-specification:'Droid Sans';letter-spacing:0px;word-spacing:0px;fill:#0000ff;fill-opacity:1;stroke:none;stroke-width:0.26458332"
       xml:space="preserve"><tspan
         id="tspan2538"
         style="font-style:normal;font-variant:normal;font-weight:normal;font-stretch:normal;font-family:'DejaVu Serif';-inkscape-font-specification:'DejaVu Serif';fill:#0000ff;stroke-width:0.26458332"
         y="59.561756"
         x="22.65662"
         sodipodi:role="line">Inställningar</tspan></text>
  </g>
  <g
     inkscape:label="Wifi-bg"
     inkscape:groupmode="layer"
     id="layer1"
     style="display:none"
     transform="translate(-74.336311,-69.068748)">
    <rect
       style="opacity:1;vector-effect:none;fill:#f9f9f9;fill-opacity:1;fill-rule:evenodd;stroke:none;stroke-width:0.25;stroke-linecap:butt;stroke-linejoin:miter;stroke-miterlimit:4;stroke-dasharray:none;stroke-dashoffset:0;stroke-opacity:1"
       id="rect826"
       width="92.604164"
       height="164.57083"
       x="74.461311"
       y="69.193748" />
    <rect
       style="opacity:1;vector-effect:none;fill:#00849d;fill-opacity:1;fill-rule:evenodd;stroke:#00849d;stroke-width:0.25;stroke-linecap:butt;stroke-linejoin:miter;stroke-miterlimit:4;stroke-dasharray:none;stroke-dashoffset:0;stroke-opacity:1"
       id="rect828"
       width="92.448509"
       height="6.0059505"
       x="74.461311"
       y="69.193748" />
    <text
       xml:space="preserve"
       style="font-style:normal;font-variant:normal;font-weight:normal;font-stretch:normal;font-size:3.88055563px;line-height:100%;font-family:'DejaVu Sans';-inkscape-font-specification:'DejaVu Sans';letter-spacing:0px;word-spacing:0px;display:inline;fill:#000000;fill-opacity:1;stroke:none;stroke-width:0.26458332"
       x="155.41724"
       y="73.562683"
       id="text836"><tspan
         sodipodi:role="line"
         id="tspan834"
         x="155.41724"
         y="73.562683"
         style="font-style:normal;font-variant:normal;font-weight:normal;font-stretch:normal;font-family:'Droid Sans';-inkscape-font-specification:'Droid Sans';fill:#ffffff;stroke-width:0.26458332">17:53</tspan></text>
    <g
       style="display:inline"
       id="g1101"
       transform="matrix(0.82589283,0,0,0.82589283,26.29972,13.064711)">
      <path
         style="fill:#ffffff;fill-opacity:1;stroke-width:0.26458332"
         id="path1081"
         d="m 153.48441,69.326041 h -0.44185 v -0.529166 h -1.05834 v 0.529166 h -0.44185 c -0.19315,0 -0.3519,0.15875 -0.3519,0.351896 V 73.734 c 0,0.195791 0.15875,0.354541 0.3519,0.354541 h 1.93939 c 0.1958,0 0.35455,-0.15875 0.35455,-0.351896 v -4.058708 c 0,-0.193146 -0.15875,-0.351896 -0.3519,-0.351896 z"
         inkscape:connector-curvature="0" />
      <rect
         y="72.86274"
         x="151.57245"
         height="0.78022867"
         width="1.8483107"
         id="rect1097"
         style="opacity:1;vector-effect:none;fill:#00849d;fill-opacity:1;fill-rule:evenodd;stroke:none;stroke-width:0.16067399;stroke-linecap:butt;stroke-linejoin:miter;stroke-miterlimit:4;stroke-dasharray:none;stroke-dashoffset:0;stroke-opacity:1" />
      <rect
         style="opacity:1;vector-effect:none;fill:#00849d;fill-opacity:1;fill-rule:evenodd;stroke:none;stroke-width:0.16067399;stroke-linecap:butt;stroke-linejoin:miter;stroke-miterlimit:4;stroke-dasharray:none;stroke-dashoffset:0;stroke-opacity:1"
         id="rect1699"
         width="1.8483107"
         height="0.78022867"
         x="151.57245"
         y="71.796852" />
    </g>
    <text
       xml:space="preserve"
       style="font-style:normal;font-variant:normal;font-weight:normal;font-stretch:normal;font-size:2.82222223px;line-height:100%;font-family:'DejaVu Sans';-inkscape-font-specification:'DejaVu Sans';letter-spacing:0px;word-spacing:0px;display:inline;fill:#000000;fill-opacity:1;stroke:none;stroke-width:0.26458332"
       x="144.39236"
       y="73.228584"
       id="text840"><tspan
         sodipodi:role="line"
         id="tspan838"
         x="144.39236"
         y="73.228584"
         style="font-style:normal;font-variant:normal;font-weight:normal;font-stretch:normal;font-family:'Droid Sans';-inkscape-font-specification:'Droid Sans';fill:#ffffff;stroke-width:0.26458332">53%</tspan></text>
    <path
       inkscape:connector-curvature="0"
       d="m 138.59801,74.270804 h 4.02213 v -4.022136 z"
       id="path1289"
       style="display:inline;fill:#ffffff;fill-opacity:1;stroke-width:0.2011068" />
    <path
       style="display:inline;opacity:1;vector-effect:none;fill:none;fill-opacity:1;stroke:#00849d;stroke-width:0.40000001;stroke-linecap:butt;stroke-linejoin:miter;stroke-miterlimit:4;stroke-dasharray:none;stroke-dashoffset:0;stroke-opacity:1"
       d="m 140.02433,72.083743 v 2.456846"
       id="path1307"
       inkscape:connector-curvature="0" />
    <path
       inkscape:connector-curvature="0"
       d="m 132.69663,70.798922 0.35301,0.353012 c 0.87724,-0.877235 2.29988,-0.877235 3.17711,0 l 0.35302,-0.353012 c -1.07139,-1.071392 -2.80998,-1.071392 -3.88314,0 z m 1.41205,1.412048 0.52952,0.529518 0.52952,-0.529518 c -0.29124,-0.293001 -0.76604,-0.293001 -1.05904,0 z m -0.70602,-0.706025 0.35301,0.353013 c 0.48715,-0.487157 1.2779,-0.487157 1.76506,0 l 0.35301,-0.353013 c -0.68131,-0.681312 -1.78801,-0.681312 -2.47108,0 z"
       id="path1148"
       style="display:inline;fill:#ffffff;stroke-width:0.17650597" />
    <path
       inkscape:connector-curvature="0"
       d="m 125.56612,72.850405 h 0.46235 v -1.387048 h -0.46235 z m 0.69352,0.462349 h 0.46235 v -2.311747 h -0.46235 z m 4.39232,-1.849397 v 1.387048 h 0.46235 v -1.387048 z m -0.69353,1.849397 h 0.46236 v -2.311747 h -0.46236 z m -0.57793,-3.236445 h -2.08058 c -0.19187,0 -0.34675,0.154887 -0.34675,0.346762 v 3.46762 c 0,0.191874 0.15488,0.346762 0.34675,0.346762 h 2.08058 c 0.19188,0 0.34676,-0.154888 0.34676,-0.346762 v -3.46762 c 0,-0.191875 -0.15488,-0.346762 -0.34676,-0.346762 z m -0.11559,3.698794 h -1.84939 v -3.236444 h 1.84939 z"
       id="path1209"
       style="display:inline;fill:#ffffff;stroke-width:0.23117463" />
    <path
       style="display:inline;opacity:1;vector-effect:none;fill:#ffffff;fill-opacity:1;stroke:none;stroke-width:0.09891052;stroke-linecap:butt;stroke-linejoin:miter;stroke-miterlimit:4;stroke-dasharray:none;stroke-dashoffset:0;stroke-opacity:1"
       d="m 133.91472,73.72772 v -0.760543 l 0.45048,-0.0072 v 0.76779 h 0.25421 l -0.45976,0.569803 -0.4437,-0.569803 z"
       id="path1678"
       inkscape:connector-curvature="0"
       sodipodi:nodetypes="cccccccc" />
    <path
       sodipodi:nodetypes="cccccccc"
       inkscape:connector-curvature="0"
       id="path1681"
       d="m 135.47898,73.425072 v 0.760543 l -0.45048,0.0072 v -0.76779 h -0.25421 l 0.45976,-0.569803 0.4437,0.569803 z"
       style="display:inline;opacity:1;vector-effect:none;fill:#ffffff;fill-opacity:1;stroke:none;stroke-width:0.09891052;stroke-linecap:butt;stroke-linejoin:miter;stroke-miterlimit:4;stroke-dasharray:none;stroke-dashoffset:0;stroke-opacity:1" />
  </g>
  <g
     inkscape:groupmode="layer"
     id="layer3"
     inkscape:label="Wifi-top"
     style="display:none"
     transform="translate(-74.336311,-69.068748)">
    <rect
       transform="translate(-1.0416667e-6)"
       style="display:inline;opacity:1;vector-effect:none;fill:#00a5c4;fill-opacity:1;fill-rule:evenodd;stroke:#00a5c4;stroke-width:0.25;stroke-linecap:butt;stroke-linejoin:miter;stroke-miterlimit:4;stroke-dasharray:none;stroke-dashoffset:0;stroke-opacity:1"
       id="rect830"
       width="92.448509"
       height="14.666416"
       x="74.461311"
       y="75.199699" />
    <text
       xml:space="preserve"
       style="font-style:normal;font-variant:normal;font-weight:normal;font-stretch:normal;font-size:4.93888903px;line-height:100%;font-family:'Droid Sans';-inkscape-font-specification:'Droid Sans';letter-spacing:0px;word-spacing:0px;display:inline;fill:#000000;fill-opacity:1;stroke:none;stroke-width:0.26458332"
       x="78.619049"
       y="101.11384"
       id="text1554"><tspan
         sodipodi:role="line"
         id="tspan1552"
         x="78.619049"
         y="101.11384"
         style="stroke-width:0.26458332">Smart nätverksbyte</tspan></text>
    <text
       xml:space="preserve"
       style="font-style:normal;font-variant:normal;font-weight:normal;font-stretch:normal;font-size:3.52777767px;line-height:125%;font-family:'Droid Sans';-inkscape-font-specification:'Droid Sans';letter-spacing:0px;word-spacing:0px;display:inline;fill:#000000;fill-opacity:1;stroke:none;stroke-width:0.26458332"
       x="78.808037"
       y="105.93304"
       id="text1558"><tspan
         sodipodi:role="line"
         id="tspan1556"
         x="78.808037"
         y="105.93304"
         style="stroke-width:0.26458332">Växla automatiskt mellan Wi-Fi-nätverk och</tspan><tspan
         sodipodi:role="line"
         x="78.808037"
         y="110.34276"
         style="stroke-width:0.26458332"
         id="tspan1560">mobilnät samt mellan band på 2,4 GHz och 5</tspan><tspan
         sodipodi:role="line"
         x="78.808037"
         y="114.75248"
         style="stroke-width:0.26458332"
         id="tspan1562">GHz, för att få en stabil Internetanslutning</tspan></text>
    <path
       inkscape:connector-curvature="0"
       d="m 148.4029,80.703124 h -4.06325 c -1.12145,0 -2.03161,0.910167 -2.03161,2.031623 0,1.121454 0.91016,2.031621 2.03161,2.031621 h 4.06325 c 1.12145,0 2.03163,-0.910167 2.03163,-2.031621 0,-1.121456 -0.91018,-2.031623 -2.03163,-2.031623 z m 0,3.250596 c -0.67449,0 -1.21897,-0.544476 -1.21897,-1.218973 0,-0.674498 0.54448,-1.218974 1.21897,-1.218974 0.6745,0 1.21897,0.544476 1.21897,1.218974 0,0.674497 -0.54447,1.218973 -1.21897,1.218973 z"
       id="path1020"
       style="display:inline;fill:#ffffff;stroke-width:0.40632433" />
    <path
       inkscape:connector-curvature="0"
       d="m 160.82887,81.534673 c 0.29104,0 0.52916,-0.238125 0.52916,-0.529167 0,-0.291042 -0.23812,-0.529167 -0.52916,-0.529167 -0.29105,0 -0.52917,0.238125 -0.52917,0.529167 0,0.291042 0.23812,0.529167 0.52917,0.529167 z m 0,0.529166 c -0.29105,0 -0.52917,0.238125 -0.52917,0.529167 0,0.291042 0.23812,0.529167 0.52917,0.529167 0.29104,0 0.52916,-0.238125 0.52916,-0.529167 0,-0.291042 -0.23812,-0.529167 -0.52916,-0.529167 z m 0,1.5875 c -0.29105,0 -0.52917,0.238125 -0.52917,0.529167 0,0.291042 0.23812,0.529167 0.52917,0.529167 0.29104,0 0.52916,-0.238125 0.52916,-0.529167 0,-0.291042 -0.23812,-0.529167 -0.52916,-0.529167 z"
       id="path959"
       style="display:inline;fill:#ffffff;stroke-width:0.26458332" />
    <text
       xml:space="preserve"
       style="font-style:normal;font-variant:normal;font-weight:normal;font-stretch:normal;font-size:4.93888903px;line-height:100%;font-family:'DejaVu Sans';-inkscape-font-specification:'DejaVu Sans';letter-spacing:0px;word-spacing:0px;display:inline;fill:#ffffff;fill-opacity:1;stroke:none;stroke-width:0.26458332"
       x="89.013397"
       y="84.482887"
       id="text912"><tspan
         sodipodi:role="line"
         id="tspan910"
         x="89.013397"
         y="84.482887"
         style="font-style:normal;font-variant:normal;font-weight:normal;font-stretch:normal;font-family:'Droid Sans';-inkscape-font-specification:'Droid Sans';fill:#ffffff;stroke-width:0.26458332">Wi-Fi</tspan></text>
    <path
       inkscape:connector-curvature="0"
       d="m 83.861999,82.385256 h -3.21998 l 1.479021,-1.479021 -0.375708,-0.373063 -2.116667,2.116667 2.116667,2.116667 0.373062,-0.373063 -1.476375,-1.479021 h 3.21998 z"
       id="path894"
       style="display:inline;fill:#ffffff;stroke:none;stroke-width:0.26458332" />
    <g
       style="display:inline"
       id="g1550"
       transform="matrix(0.29903428,0,0,0.29903428,155.22064,101.86035)">
      <path
         id="path1536"
         d="M 0,0 H 24 V 24 H 0 Z"
         inkscape:connector-curvature="0"
         style="fill:none" />
      <path
         id="path1538"
         d="M 19,5 V 19 H 5 V 5 H 19 M 19,3 H 5 C 3.9,3 3,3.9 3,5 v 14 c 0,1.1 0.9,2 2,2 h 14 c 1.1,0 2,-0.9 2,-2 V 5 C 21,3.9 20.1,3 19,3 Z"
         inkscape:connector-curvature="0" />
    </g>
    <text
       xml:space="preserve"
       style="font-style:normal;font-variant:normal;font-weight:normal;font-stretch:normal;font-size:4.23333311px;line-height:100%;font-family:'Droid Sans';-inkscape-font-specification:'Droid Sans';letter-spacing:0px;word-spacing:0px;display:inline;fill:#00a5c4;fill-opacity:1;stroke:none;stroke-width:0.26458332"
       x="78.619049"
       y="131.25743"
       id="text1327"><tspan
         sodipodi:role="line"
         id="tspan1325"
         x="78.619049"
         y="131.25743"
         style="fill:#00a5c4;fill-opacity:1;stroke-width:0.26458332">Wi-Fi-nätverk</tspan></text>
    <path
       style="display:inline;opacity:1;vector-effect:none;fill:none;fill-opacity:1;stroke:#b3b3b3;stroke-width:0.25;stroke-linecap:butt;stroke-linejoin:miter;stroke-miterlimit:4;stroke-dasharray:none;stroke-dashoffset:0;stroke-opacity:1"
       d="M 74.461308,121.24107 H 167.25446"
       id="path1592"
       inkscape:connector-curvature="0" />
  </g>
  <g
     inkscape:groupmode="layer"
     id="layer4"
     inkscape:label="Wifi 1"
     style="display:none">
    <path
       transform="translate(-74.336312,-69.068749)"
       inkscape:connector-curvature="0"
       d="m 86.24731,146.4221 h -0.181062 v -0.36212 c 0,-0.49973 -0.405578,-0.90531 -0.905308,-0.90531 -0.49973,0 -0.905309,0.40558 -0.905309,0.90531 v 0.36212 H 84.07457 c -0.199168,0 -0.362123,0.16295 -0.362123,0.36212 v 1.81062 c 0,0.19917 0.162955,0.36212 0.362123,0.36212 h 2.17274 c 0.199168,0 0.362123,-0.16295 0.362123,-0.36212 v -1.81062 c 0,-0.19917 -0.162955,-0.36212 -0.362123,-0.36212 z m -1.08637,1.62956 c -0.199168,0 -0.362124,-0.16296 -0.362124,-0.36213 0,-0.19917 0.162956,-0.36212 0.362124,-0.36212 0.199168,0 0.362123,0.16295 0.362123,0.36212 0,0.19917 -0.162955,0.36213 -0.362123,0.36213 z m 0.561291,-1.62956 h -1.122582 v -0.36212 c 0,-0.30962 0.251675,-0.5613 0.561291,-0.5613 0.309615,0 0.561291,0.25168 0.561291,0.5613 z"
       id="path1465"
       style="display:inline;stroke-width:0.18106161" />
    <path
       transform="translate(-74.336312,-69.068749)"
       style="display:inline;fill:#00a5c4;fill-opacity:1;stroke-width:0.33330625"
       id="path1418"
       d="m 79.149557,144.58619 0.666613,0.66661 c 1.656532,-1.65653 4.342981,-1.65653 5.999513,0 l 0.666613,-0.66661 c -2.023169,-2.02317 -5.306236,-2.02317 -7.332739,0 z m 2.666451,2.66645 0.999919,0.99992 0.999918,-0.99992 c -0.549956,-0.55329 -1.446549,-0.55329 -1.999837,0 z m -1.333225,-1.33323 0.666612,0.66661 c 0.919925,-0.91992 2.413138,-0.91992 3.333063,0 l 0.666612,-0.66661 c -1.286561,-1.28656 -3.376392,-1.28656 -4.666287,0 z"
       inkscape:connector-curvature="0" />
    <path
       transform="translate(-74.336312,-69.068749)"
       inkscape:connector-curvature="0"
       d="m 79.149557,164.23587 0.666613,0.66661 c 1.656532,-1.65653 4.342981,-1.65653 5.999513,0 l 0.666613,-0.66661 c -2.023169,-2.02317 -5.306236,-2.02317 -7.332739,0 z m 2.666451,2.66645 0.999919,0.99992 0.999918,-0.99992 c -0.549956,-0.55329 -1.446549,-0.55329 -1.999837,0 z m -1.333225,-1.33323 0.666612,0.66661 c 0.919925,-0.91992 2.413138,-0.91992 3.333063,0 l 0.666612,-0.66661 c -1.286561,-1.28656 -3.376392,-1.28656 -4.666287,0 z"
       id="path1402"
       style="display:inline;fill:#00a5c4;fill-opacity:1;stroke-width:0.33330625" />
    <text
       transform="translate(-74.336312,-69.068749)"
       xml:space="preserve"
       style="font-style:normal;font-variant:normal;font-weight:normal;font-stretch:normal;font-size:4.93888855px;line-height:100%;font-family:'Droid Sans';-inkscape-font-specification:'Droid Sans';letter-spacing:0px;word-spacing:0px;display:inline;fill:#000000;fill-opacity:1;stroke:none;stroke-width:0.26458332"
       x="93.775887"
       y="165.2753"
       id="text1335"><tspan
         sodipodi:role="line"
         id="tspan1333"
         x="93.775887"
         y="165.2753"
         style="stroke-width:0.26458332">MRC-client</tspan></text>
    <text
       transform="translate(-74.336312,-69.068749)"
       id="text1597"
       y="146.75441"
       x="93.775887"
       style="font-style:normal;font-variant:normal;font-weight:normal;font-stretch:normal;font-size:4.93888855px;line-height:100%;font-family:'Droid Sans';-inkscape-font-specification:'Droid Sans';letter-spacing:0px;word-spacing:0px;display:inline;fill:#000000;fill-opacity:1;stroke:none;stroke-width:0.26458332"
       xml:space="preserve"><tspan
         style="stroke-width:0.26458332"
         y="146.75441"
         x="93.775887"
         id="tspan1595"
         sodipodi:role="line">Hemma</tspan></text>
    <text
       transform="translate(-74.336312,-69.068749)"
       xml:space="preserve"
       style="font-style:normal;font-variant:normal;font-weight:normal;font-stretch:normal;font-size:3.52777767px;line-height:100%;font-family:'Droid Sans';-inkscape-font-specification:'Droid Sans';letter-spacing:0px;word-spacing:0px;display:inline;fill:#000000;fill-opacity:1;stroke:none;stroke-width:0.26458332"
       x="93.927086"
       y="150.53423"
       id="text1331"><tspan
         sodipodi:role="line"
         id="tspan1329"
         x="93.927086"
         y="150.53423"
         style="stroke-width:0.26458332">Ansluten</tspan></text>
    <text
       transform="translate(-74.336312,-69.068749)"
       xml:space="preserve"
       style="font-style:normal;font-variant:normal;font-weight:normal;font-stretch:normal;font-size:3.88055563px;line-height:100%;font-family:'Droid Sans';-inkscape-font-specification:'Droid Sans';letter-spacing:0px;word-spacing:0px;display:inline;fill:#000000;fill-opacity:1;stroke:none;stroke-width:0.26458332"
       x="93.738091"
       y="170.75595"
       id="text1339"><tspan
         sodipodi:role="line"
         id="tspan1337"
         x="93.738091"
         y="170.75595"
         style="stroke-width:0.26458332">Öppen</tspan></text>
    <text
       transform="translate(-74.336312,-69.068749)"
       xml:space="preserve"
       style="font-style:normal;font-variant:normal;font-weight:normal;font-stretch:normal;font-size:3.88055563px;line-height:100%;font-family:'Droid Sans';-inkscape-font-specification:'Droid Sans';letter-spacing:0px;word-spacing:0px;display:inline;fill:#000000;fill-opacity:1;stroke:none;stroke-width:0.26458332"
       x="93.927086"
       y="190.41071"
       id="text1343"><tspan
         sodipodi:role="line"
         id="tspan1341"
         x="93.927086"
         y="190.41071"
         style="stroke-width:0.26458332">Utom räckhåll</tspan></text>
    <text
       transform="translate(-74.336312,-69.068749)"
       id="text1566"
       y="185.38359"
       x="93.775887"
       style="font-style:normal;font-variant:normal;font-weight:normal;font-stretch:normal;font-size:4.93888855px;line-height:100%;font-family:'Droid Sans';-inkscape-font-specification:'Droid Sans';letter-spacing:0px;word-spacing:0px;display:inline;fill:#000000;fill-opacity:1;stroke:none;stroke-width:0.26458332"
       xml:space="preserve"><tspan
         style="stroke-width:0.26458332"
         y="185.38359"
         x="93.775887"
         id="tspan1564"
         sodipodi:role="line">Netgear 1234 AP</tspan></text>
    <text
       transform="translate(-74.336312,-69.068749)"
       id="text1601"
       y="210.51907"
       x="93.927086"
       style="font-style:normal;font-variant:normal;font-weight:normal;font-stretch:normal;font-size:3.88055563px;line-height:100%;font-family:'Droid Sans';-inkscape-font-specification:'Droid Sans';letter-spacing:0px;word-spacing:0px;display:inline;fill:#000000;fill-opacity:1;stroke:none;stroke-width:0.26458332"
       xml:space="preserve"><tspan
         style="stroke-width:0.26458332"
         y="210.51907"
         x="93.927086"
         id="tspan1599"
         sodipodi:role="line">Utom räckhåll</tspan></text>
    <text
       transform="translate(-74.336312,-69.068749)"
       xml:space="preserve"
       style="font-style:normal;font-variant:normal;font-weight:normal;font-stretch:normal;font-size:4.93888855px;line-height:100%;font-family:'Droid Sans';-inkscape-font-specification:'Droid Sans';letter-spacing:0px;word-spacing:0px;display:inline;fill:#000000;fill-opacity:1;stroke:none;stroke-width:0.26458332"
       x="93.775887"
       y="205.49196"
       id="text1605"><tspan
         sodipodi:role="line"
         id="tspan1603"
         x="93.775887"
         y="205.49196"
         style="stroke-width:0.26458332">Sommarstugan</tspan></text>
    <text
       transform="translate(-74.336312,-69.068749)"
       xml:space="preserve"
       style="font-style:normal;font-variant:normal;font-weight:normal;font-stretch:normal;font-size:3.88055563px;line-height:100%;font-family:'Droid Sans';-inkscape-font-specification:'Droid Sans';letter-spacing:0px;word-spacing:0px;display:inline;fill:#000000;fill-opacity:1;stroke:none;stroke-width:0.26458332"
       x="93.927086"
       y="230.62744"
       id="text1609"><tspan
         sodipodi:role="line"
         id="tspan1607"
         x="93.927086"
         y="230.62744"
         style="stroke-width:0.26458332">Utom räckhåll</tspan></text>
    <text
       transform="translate(-74.336312,-69.068749)"
       id="text1613"
       y="225.60033"
       x="93.775887"
       style="font-style:normal;font-variant:normal;font-weight:normal;font-stretch:normal;font-size:4.93888855px;line-height:100%;font-family:'Droid Sans';-inkscape-font-specification:'Droid Sans';letter-spacing:0px;word-spacing:0px;display:inline;fill:#000000;fill-opacity:1;stroke:none;stroke-width:0.26458332"
       xml:space="preserve"><tspan
         style="stroke-width:0.26458332"
         y="225.60033"
         x="93.775887"
         id="tspan1611"
         sodipodi:role="line">Jobbet</tspan></text>
  </g>
  <g
     inkscape:label="Wifi 2"
     id="g1832"
     inkscape:groupmode="layer"
     style="display:none">
    <path
       style="display:inline;stroke-width:0.18106161"
       id="path1786"
       d="m 11.910998,96.93253 h -0.181062 v -0.36212 c 0,-0.49973 -0.405578,-0.90531 -0.905308,-0.90531 -0.49973,0 -0.905309,0.40558 -0.905309,0.90531 v 0.36212 H 9.738258 c -0.199168,0 -0.362123,0.16295 -0.362123,0.36212 v 1.81062 c 0,0.19917 0.162955,0.36212 0.362123,0.36212 h 2.17274 c 0.199168,0 0.362123,-0.16295 0.362123,-0.36212 v -1.81062 c 0,-0.19917 -0.162955,-0.36212 -0.362123,-0.36212 z m -1.08637,1.62956 c -0.199168,0 -0.362124,-0.16296 -0.362124,-0.36213 0,-0.19917 0.162956,-0.36212 0.362124,-0.36212 0.199168,0 0.362123,0.16295 0.362123,0.36212 0,0.19917 -0.162955,0.36213 -0.362123,0.36213 z m 0.561291,-1.62956 h -1.122582 v -0.36212 c 0,-0.30962 0.251675,-0.5613 0.561291,-0.5613 0.309615,0 0.561291,0.25168 0.561291,0.5613 z"
       inkscape:connector-curvature="0" />
    <path
       inkscape:connector-curvature="0"
       d="m 4.813245,75.517441 0.666613,0.66661 c 1.656532,-1.65653 4.342981,-1.65653 5.999513,0 l 0.666613,-0.66661 c -2.023169,-2.02317 -5.306236,-2.02317 -7.332739,0 z m 2.666451,2.66645 0.999919,0.99992 0.999918,-0.99992 c -0.549956,-0.55329 -1.446549,-0.55329 -1.999837,0 z m -1.333225,-1.33323 0.666612,0.66661 c 0.919925,-0.91992 2.413138,-0.91992 3.333063,0 l 0.666612,-0.66661 c -1.286561,-1.28656 -3.376392,-1.28656 -4.666287,0 z"
       id="path1788"
       style="display:inline;fill:#00a5c4;fill-opacity:1;stroke-width:0.33330625" />
    <path
       style="display:inline;fill:#00a5c4;fill-opacity:1;stroke-width:0.33330625"
       id="path1790"
       d="m 79.149557,164.23587 0.666613,0.66661 c 1.656532,-1.65653 4.342981,-1.65653 5.999513,0 l 0.666613,-0.66661 c -2.023169,-2.02317 -5.306236,-2.02317 -7.332739,0 z m 2.666451,2.66645 0.999919,0.99992 0.999918,-0.99992 c -0.549956,-0.55329 -1.446549,-0.55329 -1.999837,0 z m -1.333225,-1.33323 0.666612,0.66661 c 0.919925,-0.91992 2.413138,-0.91992 3.333063,0 l 0.666612,-0.66661 c -1.286561,-1.28656 -3.376392,-1.28656 -4.666287,0 z"
       inkscape:connector-curvature="0"
       transform="translate(-74.336312,-69.068749)" />
    <text
       id="text1794"
       y="165.2753"
       x="93.775887"
       style="font-style:normal;font-variant:normal;font-weight:normal;font-stretch:normal;font-size:4.93888855px;line-height:100%;font-family:'Droid Sans';-inkscape-font-specification:'Droid Sans';letter-spacing:0px;word-spacing:0px;display:inline;fill:#000000;fill-opacity:1;stroke:none;stroke-width:0.26458332"
       xml:space="preserve"
       transform="translate(-74.336312,-69.068749)"><tspan
         style="stroke-width:0.26458332"
         y="165.2753"
         x="93.775887"
         id="tspan1792"
         sodipodi:role="line">Hemma</tspan></text>
    <text
       xml:space="preserve"
       style="font-style:normal;font-variant:normal;font-weight:normal;font-stretch:normal;font-size:4.93888855px;line-height:100%;font-family:'Droid Sans';-inkscape-font-specification:'Droid Sans';letter-spacing:0px;word-spacing:0px;display:inline;fill:#000000;fill-opacity:1;stroke:none;stroke-width:0.26458332"
       x="19.439575"
       y="77.127998"
       id="text1798"><tspan
         sodipodi:role="line"
         id="tspan1796"
         x="19.439575"
         y="77.127998"
         style="stroke-width:0.26458332">MRC-client</tspan></text>
    <text
       id="text1802"
       y="150.53423"
       x="93.927086"
       style="font-style:normal;font-variant:normal;font-weight:normal;font-stretch:normal;font-size:3.52777767px;line-height:100%;font-family:'Droid Sans';-inkscape-font-specification:'Droid Sans';letter-spacing:0px;word-spacing:0px;display:inline;fill:#000000;fill-opacity:1;stroke:none;stroke-width:0.26458332"
       xml:space="preserve"
       transform="translate(-74.336312,-69.068749)"><tspan
         style="stroke-width:0.26458332"
         y="150.53423"
         x="93.927086"
         id="tspan1800"
         sodipodi:role="line">Ansluten</tspan></text>
    <text
       id="text1806"
       y="170.75595"
       x="93.738091"
       style="font-style:normal;font-variant:normal;font-weight:normal;font-stretch:normal;font-size:3.88055563px;line-height:100%;font-family:'Droid Sans';-inkscape-font-specification:'Droid Sans';letter-spacing:0px;word-spacing:0px;display:inline;fill:#000000;fill-opacity:1;stroke:none;stroke-width:0.26458332"
       xml:space="preserve"
       transform="translate(-74.336312,-69.068749)"><tspan
         style="stroke-width:0.26458332"
         y="170.75595"
         x="93.738091"
         id="tspan1804"
         sodipodi:role="line">Sparat, Skyddad</tspan></text>
    <text
       id="text1810"
       y="190.41071"
       x="93.927086"
       style="font-style:normal;font-variant:normal;font-weight:normal;font-stretch:normal;font-size:3.88055563px;line-height:100%;font-family:'Droid Sans';-inkscape-font-specification:'Droid Sans';letter-spacing:0px;word-spacing:0px;display:inline;fill:#000000;fill-opacity:1;stroke:none;stroke-width:0.26458332"
       xml:space="preserve"
       transform="translate(-74.336312,-69.068749)"><tspan
         style="stroke-width:0.26458332"
         y="190.41071"
         x="93.927086"
         id="tspan1808"
         sodipodi:role="line">Utom räckhåll</tspan></text>
    <text
       xml:space="preserve"
       style="font-style:normal;font-variant:normal;font-weight:normal;font-stretch:normal;font-size:4.93888855px;line-height:100%;font-family:'Droid Sans';-inkscape-font-specification:'Droid Sans';letter-spacing:0px;word-spacing:0px;display:inline;fill:#000000;fill-opacity:1;stroke:none;stroke-width:0.26458332"
       x="93.775887"
       y="185.38359"
       id="text1814"
       transform="translate(-74.336312,-69.068749)"><tspan
         sodipodi:role="line"
         id="tspan1812"
         x="93.775887"
         y="185.38359"
         style="stroke-width:0.26458332">Netgear 1234 AP</tspan></text>
    <text
       xml:space="preserve"
       style="font-style:normal;font-variant:normal;font-weight:normal;font-stretch:normal;font-size:3.88055563px;line-height:100%;font-family:'Droid Sans';-inkscape-font-specification:'Droid Sans';letter-spacing:0px;word-spacing:0px;display:inline;fill:#000000;fill-opacity:1;stroke:none;stroke-width:0.26458332"
       x="93.927086"
       y="210.51907"
       id="text1818"
       transform="translate(-74.336312,-69.068749)"><tspan
         sodipodi:role="line"
         id="tspan1816"
         x="93.927086"
         y="210.51907"
         style="stroke-width:0.26458332">Utom räckhåll</tspan></text>
    <text
       id="text1822"
       y="205.49196"
       x="93.775887"
       style="font-style:normal;font-variant:normal;font-weight:normal;font-stretch:normal;font-size:4.93888855px;line-height:100%;font-family:'Droid Sans';-inkscape-font-specification:'Droid Sans';letter-spacing:0px;word-spacing:0px;display:inline;fill:#000000;fill-opacity:1;stroke:none;stroke-width:0.26458332"
       xml:space="preserve"
       transform="translate(-74.336312,-69.068749)"><tspan
         style="stroke-width:0.26458332"
         y="205.49196"
         x="93.775887"
         id="tspan1820"
         sodipodi:role="line">Sommarstugan</tspan></text>
    <text
       id="text1826"
       y="230.62744"
       x="93.927086"
       style="font-style:normal;font-variant:normal;font-weight:normal;font-stretch:normal;font-size:3.88055563px;line-height:100%;font-family:'Droid Sans';-inkscape-font-specification:'Droid Sans';letter-spacing:0px;word-spacing:0px;display:inline;fill:#000000;fill-opacity:1;stroke:none;stroke-width:0.26458332"
       xml:space="preserve"
       transform="translate(-74.336312,-69.068749)"><tspan
         style="stroke-width:0.26458332"
         y="230.62744"
         x="93.927086"
         id="tspan1824"
         sodipodi:role="line">Utom räckhåll</tspan></text>
    <text
       xml:space="preserve"
       style="font-style:normal;font-variant:normal;font-weight:normal;font-stretch:normal;font-size:4.93888855px;line-height:100%;font-family:'Droid Sans';-inkscape-font-specification:'Droid Sans';letter-spacing:0px;word-spacing:0px;display:inline;fill:#000000;fill-opacity:1;stroke:none;stroke-width:0.26458332"
       x="93.775887"
       y="225.60033"
       id="text1830"
       transform="translate(-74.336312,-69.068749)"><tspan
         sodipodi:role="line"
         id="tspan1828"
         x="93.775887"
         y="225.60033"
         style="stroke-width:0.26458332">Jobbet</tspan></text>
  </g>
</svg>
