<?xml version="1.0" encoding="UTF-8" standalone="no"?>
<!-- Created with Inkscape (http://www.inkscape.org/) -->

<svg
   xmlns:dc="http://purl.org/dc/elements/1.1/"
   xmlns:cc="http://creativecommons.org/ns#"
   xmlns:rdf="http://www.w3.org/1999/02/22-rdf-syntax-ns#"
   xmlns:svg="http://www.w3.org/2000/svg"
   xmlns="http://www.w3.org/2000/svg"
   xmlns:sodipodi="http://sodipodi.sourceforge.net/DTD/sodipodi-0.dtd"
   xmlns:inkscape="http://www.inkscape.org/namespaces/inkscape"
   width="92.918152mm"
   height="164.69583mm"
   viewBox="0 0 92.918152 164.69583"
   version="1.1"
   id="svg8"
   inkscape:version="0.92.3 (2405546, 2018-03-11)"
   sodipodi:docname="Mobilskärm.svg">
  <defs
     id="defs2" />
  <sodipodi:namedview
     id="base"
     pagecolor="#ffffff"
     bordercolor="#666666"
     borderopacity="1.0"
     inkscape:pageopacity="0.0"
     inkscape:pageshadow="2"
     inkscape:zoom="1.4233562"
     inkscape:cx="175.59336"
     inkscape:cy="311.23622"
     inkscape:document-units="mm"
     inkscape:current-layer="layer3"
     showgrid="false"
     inkscape:window-width="1920"
     inkscape:window-height="1117"
     inkscape:window-x="0"
     inkscape:window-y="29"
     inkscape:window-maximized="1"
     fit-margin-top="0"
     fit-margin-left="0"
     fit-margin-right="0"
     fit-margin-bottom="0" />
  <metadata
     id="metadata5">
    <rdf:RDF>
      <cc:Work
         rdf:about="">
        <dc:format>image/svg+xml</dc:format>
        <dc:type
           rdf:resource="http://purl.org/dc/dcmitype/StillImage" />
        <dc:title></dc:title>
      </cc:Work>
    </rdf:RDF>
  </metadata>
  <g
     inkscape:label="Bg"
     inkscape:groupmode="layer"
     id="layer1"
     style="display:inline"
     sodipodi:insensitive="true"
     transform="translate(-74.336311,-69.068748)">
    <rect
       style="opacity:1;vector-effect:none;fill:#f9f9f9;fill-opacity:1;fill-rule:evenodd;stroke:none;stroke-width:0.25;stroke-linecap:butt;stroke-linejoin:miter;stroke-miterlimit:4;stroke-dasharray:none;stroke-dashoffset:0;stroke-opacity:1"
       id="rect826"
       width="92.604164"
       height="164.57083"
       x="74.461311"
       y="69.193748" />
    <rect
       style="opacity:1;vector-effect:none;fill:#00849d;fill-opacity:1;fill-rule:evenodd;stroke:#00849d;stroke-width:0.25;stroke-linecap:butt;stroke-linejoin:miter;stroke-miterlimit:4;stroke-dasharray:none;stroke-dashoffset:0;stroke-opacity:1"
       id="rect828"
       width="92.448509"
       height="6.0059505"
       x="74.461311"
       y="69.193748" />
    <rect
       style="opacity:1;vector-effect:none;fill:#00a5c4;fill-opacity:1;fill-rule:evenodd;stroke:#00a5c4;stroke-width:0.25;stroke-linecap:butt;stroke-linejoin:miter;stroke-miterlimit:4;stroke-dasharray:none;stroke-dashoffset:0;stroke-opacity:1"
       id="rect830"
       width="92.448509"
       height="14.666416"
       x="74.461311"
       y="75.199699" />
    <text
       xml:space="preserve"
       style="font-style:normal;font-variant:normal;font-weight:normal;font-stretch:normal;font-size:3.88055563px;line-height:100%;font-family:'DejaVu Sans';-inkscape-font-specification:'DejaVu Sans';letter-spacing:0px;word-spacing:0px;display:inline;fill:#000000;fill-opacity:1;stroke:none;stroke-width:0.26458332"
       x="155.41724"
       y="73.562683"
       id="text836"><tspan
         sodipodi:role="line"
         id="tspan834"
         x="155.41724"
         y="73.562683"
         style="font-style:normal;font-variant:normal;font-weight:normal;font-stretch:normal;font-family:'Droid Sans';-inkscape-font-specification:'Droid Sans';fill:#ffffff;stroke-width:0.26458332">17:53</tspan></text>
    <g
       style="display:inline"
       id="g1101"
       transform="matrix(0.82589283,0,0,0.82589283,26.29972,13.064711)">
      <path
         style="fill:#ffffff;fill-opacity:1;stroke-width:0.26458332"
         id="path1081"
         d="m 153.48441,69.326041 h -0.44185 v -0.529166 h -1.05834 v 0.529166 h -0.44185 c -0.19315,0 -0.3519,0.15875 -0.3519,0.351896 V 73.734 c 0,0.195791 0.15875,0.354541 0.3519,0.354541 h 1.93939 c 0.1958,0 0.35455,-0.15875 0.35455,-0.351896 v -4.058708 c 0,-0.193146 -0.15875,-0.351896 -0.3519,-0.351896 z"
         inkscape:connector-curvature="0" />
      <rect
         y="72.86274"
         x="151.57245"
         height="0.78022867"
         width="1.8483107"
         id="rect1097"
         style="opacity:1;vector-effect:none;fill:#00849d;fill-opacity:1;fill-rule:evenodd;stroke:none;stroke-width:0.16067399;stroke-linecap:butt;stroke-linejoin:miter;stroke-miterlimit:4;stroke-dasharray:none;stroke-dashoffset:0;stroke-opacity:1" />
      <rect
         style="opacity:1;vector-effect:none;fill:#00849d;fill-opacity:1;fill-rule:evenodd;stroke:none;stroke-width:0.16067399;stroke-linecap:butt;stroke-linejoin:miter;stroke-miterlimit:4;stroke-dasharray:none;stroke-dashoffset:0;stroke-opacity:1"
         id="rect1699"
         width="1.8483107"
         height="0.78022867"
         x="151.57245"
         y="71.796852" />
    </g>
    <text
       xml:space="preserve"
       style="font-style:normal;font-variant:normal;font-weight:normal;font-stretch:normal;font-size:2.82222223px;line-height:100%;font-family:'DejaVu Sans';-inkscape-font-specification:'DejaVu Sans';letter-spacing:0px;word-spacing:0px;display:inline;fill:#000000;fill-opacity:1;stroke:none;stroke-width:0.26458332"
       x="144.39236"
       y="73.228584"
       id="text840"><tspan
         sodipodi:role="line"
         id="tspan838"
         x="144.39236"
         y="73.228584"
         style="font-style:normal;font-variant:normal;font-weight:normal;font-stretch:normal;font-family:'Droid Sans';-inkscape-font-specification:'Droid Sans';fill:#ffffff;stroke-width:0.26458332">53%</tspan></text>
    <path
       inkscape:connector-curvature="0"
       d="m 138.59801,74.270804 h 4.02213 v -4.022136 z"
       id="path1289"
       style="display:inline;fill:#ffffff;fill-opacity:1;stroke-width:0.2011068" />
    <path
       style="display:inline;opacity:1;vector-effect:none;fill:none;fill-opacity:1;stroke:#00849d;stroke-width:0.40000001;stroke-linecap:butt;stroke-linejoin:miter;stroke-miterlimit:4;stroke-dasharray:none;stroke-dashoffset:0;stroke-opacity:1"
       d="m 140.02433,72.083743 v 2.456846"
       id="path1307"
       inkscape:connector-curvature="0" />
    <path
       inkscape:connector-curvature="0"
       d="m 132.69663,70.798922 0.35301,0.353012 c 0.87724,-0.877235 2.29988,-0.877235 3.17711,0 l 0.35302,-0.353012 c -1.07139,-1.071392 -2.80998,-1.071392 -3.88314,0 z m 1.41205,1.412048 0.52952,0.529518 0.52952,-0.529518 c -0.29124,-0.293001 -0.76604,-0.293001 -1.05904,0 z m -0.70602,-0.706025 0.35301,0.353013 c 0.48715,-0.487157 1.2779,-0.487157 1.76506,0 l 0.35301,-0.353013 c -0.68131,-0.681312 -1.78801,-0.681312 -2.47108,0 z"
       id="path1148"
       style="display:inline;fill:#ffffff;stroke-width:0.17650597" />
    <path
       inkscape:connector-curvature="0"
       d="m 125.56612,72.850405 h 0.46235 v -1.387048 h -0.46235 z m 0.69352,0.462349 h 0.46235 v -2.311747 h -0.46235 z m 4.39232,-1.849397 v 1.387048 h 0.46235 v -1.387048 z m -0.69353,1.849397 h 0.46236 v -2.311747 h -0.46236 z m -0.57793,-3.236445 h -2.08058 c -0.19187,0 -0.34675,0.154887 -0.34675,0.346762 v 3.46762 c 0,0.191874 0.15488,0.346762 0.34675,0.346762 h 2.08058 c 0.19188,0 0.34676,-0.154888 0.34676,-0.346762 v -3.46762 c 0,-0.191875 -0.15488,-0.346762 -0.34676,-0.346762 z m -0.11559,3.698794 h -1.84939 v -3.236444 h 1.84939 z"
       id="path1209"
       style="display:inline;fill:#ffffff;stroke-width:0.23117463" />
    <path
       style="display:inline;opacity:1;vector-effect:none;fill:#ffffff;fill-opacity:1;stroke:none;stroke-width:0.09891052;stroke-linecap:butt;stroke-linejoin:miter;stroke-miterlimit:4;stroke-dasharray:none;stroke-dashoffset:0;stroke-opacity:1"
       d="m 133.91472,73.72772 v -0.760543 l 0.45048,-0.0072 v 0.76779 h 0.25421 l -0.45976,0.569803 -0.4437,-0.569803 z"
       id="path1678"
       inkscape:connector-curvature="0"
       sodipodi:nodetypes="cccccccc" />
    <path
       sodipodi:nodetypes="cccccccc"
       inkscape:connector-curvature="0"
       id="path1681"
       d="m 135.47898,73.425072 v 0.760543 l -0.45048,0.0072 v -0.76779 h -0.25421 l 0.45976,-0.569803 0.4437,0.569803 z"
       style="display:inline;opacity:1;vector-effect:none;fill:#ffffff;fill-opacity:1;stroke:none;stroke-width:0.09891052;stroke-linecap:butt;stroke-linejoin:miter;stroke-miterlimit:4;stroke-dasharray:none;stroke-dashoffset:0;stroke-opacity:1" />
  </g>
  <g
     inkscape:groupmode="layer"
     id="layer3"
     inkscape:label="Wifi"
     style="display:inline"
     transform="translate(-74.336311,-69.068748)">
    <text
       xml:space="preserve"
       style="font-style:normal;font-variant:normal;font-weight:normal;font-stretch:normal;font-size:4.93888903px;line-height:100%;font-family:'Droid Sans';-inkscape-font-specification:'Droid Sans';letter-spacing:0px;word-spacing:0px;display:inline;fill:#000000;fill-opacity:1;stroke:none;stroke-width:0.26458332"
       x="78.619049"
       y="101.11384"
       id="text1554"><tspan
         sodipodi:role="line"
         id="tspan1552"
         x="78.619049"
         y="101.11384"
         style="stroke-width:0.26458332">Smart nätverksbyte</tspan></text>
    <text
       xml:space="preserve"
       style="font-style:normal;font-variant:normal;font-weight:normal;font-stretch:normal;font-size:3.52777767px;line-height:125%;font-family:'Droid Sans';-inkscape-font-specification:'Droid Sans';letter-spacing:0px;word-spacing:0px;display:inline;fill:#000000;fill-opacity:1;stroke:none;stroke-width:0.26458332"
       x="78.808037"
       y="105.93304"
       id="text1558"><tspan
         sodipodi:role="line"
         id="tspan1556"
         x="78.808037"
         y="105.93304"
         style="stroke-width:0.26458332">Växla automatiskt mellan Wi-Fi-nätverk och</tspan><tspan
         sodipodi:role="line"
         x="78.808037"
         y="110.34276"
         style="stroke-width:0.26458332"
         id="tspan1560">mobilnät samt mellan band på 2,4 GHz och 5</tspan><tspan
         sodipodi:role="line"
         x="78.808037"
         y="114.75248"
         style="stroke-width:0.26458332"
         id="tspan1562">GHz, för att få en stabil Internetanslutning</tspan></text>
    <path
       inkscape:connector-curvature="0"
       d="m 148.4029,80.703124 h -4.06325 c -1.12145,0 -2.03161,0.910167 -2.03161,2.031623 0,1.121454 0.91016,2.031621 2.03161,2.031621 h 4.06325 c 1.12145,0 2.03163,-0.910167 2.03163,-2.031621 0,-1.121456 -0.91018,-2.031623 -2.03163,-2.031623 z m 0,3.250596 c -0.67449,0 -1.21897,-0.544476 -1.21897,-1.218973 0,-0.674498 0.54448,-1.218974 1.21897,-1.218974 0.6745,0 1.21897,0.544476 1.21897,1.218974 0,0.674497 -0.54447,1.218973 -1.21897,1.218973 z"
       id="path1020"
       style="display:inline;fill:#ffffff;stroke-width:0.40632433" />
    <path
       inkscape:connector-curvature="0"
       d="m 160.82887,81.534673 c 0.29104,0 0.52916,-0.238125 0.52916,-0.529167 0,-0.291042 -0.23812,-0.529167 -0.52916,-0.529167 -0.29105,0 -0.52917,0.238125 -0.52917,0.529167 0,0.291042 0.23812,0.529167 0.52917,0.529167 z m 0,0.529166 c -0.29105,0 -0.52917,0.238125 -0.52917,0.529167 0,0.291042 0.23812,0.529167 0.52917,0.529167 0.29104,0 0.52916,-0.238125 0.52916,-0.529167 0,-0.291042 -0.23812,-0.529167 -0.52916,-0.529167 z m 0,1.5875 c -0.29105,0 -0.52917,0.238125 -0.52917,0.529167 0,0.291042 0.23812,0.529167 0.52917,0.529167 0.29104,0 0.52916,-0.238125 0.52916,-0.529167 0,-0.291042 -0.23812,-0.529167 -0.52916,-0.529167 z"
       id="path959"
       style="display:inline;fill:#ffffff;stroke-width:0.26458332" />
    <text
       xml:space="preserve"
       style="font-style:normal;font-variant:normal;font-weight:normal;font-stretch:normal;font-size:4.93888903px;line-height:100%;font-family:'DejaVu Sans';-inkscape-font-specification:'DejaVu Sans';letter-spacing:0px;word-spacing:0px;display:inline;fill:#ffffff;fill-opacity:1;stroke:none;stroke-width:0.26458332"
       x="89.013397"
       y="84.482887"
       id="text912"><tspan
         sodipodi:role="line"
         id="tspan910"
         x="89.013397"
         y="84.482887"
         style="font-style:normal;font-variant:normal;font-weight:normal;font-stretch:normal;font-family:'Droid Sans';-inkscape-font-specification:'Droid Sans';fill:#ffffff;stroke-width:0.26458332">Wi-Fi</tspan></text>
    <path
       inkscape:connector-curvature="0"
       d="m 83.861999,82.385256 h -3.21998 l 1.479021,-1.479021 -0.375708,-0.373063 -2.116667,2.116667 2.116667,2.116667 0.373062,-0.373063 -1.476375,-1.479021 h 3.21998 z"
       id="path894"
       style="display:inline;fill:#ffffff;stroke:none;stroke-width:0.26458332" />
    <g
       style="display:inline"
       id="g1550"
       transform="matrix(0.29903428,0,0,0.29903428,155.22064,101.86035)">
      <path
         id="path1536"
         d="M 0,0 H 24 V 24 H 0 Z"
         inkscape:connector-curvature="0"
         style="fill:none" />
      <path
         id="path1538"
         d="M 19,5 V 19 H 5 V 5 H 19 M 19,3 H 5 C 3.9,3 3,3.9 3,5 v 14 c 0,1.1 0.9,2 2,2 h 14 c 1.1,0 2,-0.9 2,-2 V 5 C 21,3.9 20.1,3 19,3 Z"
         inkscape:connector-curvature="0" />
    </g>
    <text
       xml:space="preserve"
       style="font-style:normal;font-variant:normal;font-weight:normal;font-stretch:normal;font-size:4.23333311px;line-height:100%;font-family:'Droid Sans';-inkscape-font-specification:'Droid Sans';letter-spacing:0px;word-spacing:0px;display:inline;fill:#00a5c4;fill-opacity:1;stroke:none;stroke-width:0.26458332"
       x="78.619049"
       y="131.25743"
       id="text1327"><tspan
         sodipodi:role="line"
         id="tspan1325"
         x="78.619049"
         y="131.25743"
         style="fill:#00a5c4;fill-opacity:1;stroke-width:0.26458332">Wi-Fi-nätverk</tspan></text>
    <path
       inkscape:connector-curvature="0"
       d="m 86.24731,146.4221 h -0.181062 v -0.36212 c 0,-0.49973 -0.405578,-0.90531 -0.905308,-0.90531 -0.49973,0 -0.905309,0.40558 -0.905309,0.90531 v 0.36212 H 84.07457 c -0.199168,0 -0.362123,0.16295 -0.362123,0.36212 v 1.81062 c 0,0.19917 0.162955,0.36212 0.362123,0.36212 h 2.17274 c 0.199168,0 0.362123,-0.16295 0.362123,-0.36212 v -1.81062 c 0,-0.19917 -0.162955,-0.36212 -0.362123,-0.36212 z m -1.08637,1.62956 c -0.199168,0 -0.362124,-0.16296 -0.362124,-0.36213 0,-0.19917 0.162956,-0.36212 0.362124,-0.36212 0.199168,0 0.362123,0.16295 0.362123,0.36212 0,0.19917 -0.162955,0.36213 -0.362123,0.36213 z m 0.561291,-1.62956 h -1.122582 v -0.36212 c 0,-0.30962 0.251675,-0.5613 0.561291,-0.5613 0.309615,0 0.561291,0.25168 0.561291,0.5613 z"
       id="path1465"
       style="display:inline;stroke-width:0.18106161" />
    <path
       style="display:inline;fill:#00a5c4;fill-opacity:1;stroke-width:0.33330625"
       id="path1418"
       d="m 79.149557,144.58619 0.666613,0.66661 c 1.656532,-1.65653 4.342981,-1.65653 5.999513,0 l 0.666613,-0.66661 c -2.023169,-2.02317 -5.306236,-2.02317 -7.332739,0 z m 2.666451,2.66645 0.999919,0.99992 0.999918,-0.99992 c -0.549956,-0.55329 -1.446549,-0.55329 -1.999837,0 z m -1.333225,-1.33323 0.666612,0.66661 c 0.919925,-0.91992 2.413138,-0.91992 3.333063,0 l 0.666612,-0.66661 c -1.286561,-1.28656 -3.376392,-1.28656 -4.666287,0 z"
       inkscape:connector-curvature="0" />
    <path
       inkscape:connector-curvature="0"
       d="m 79.149557,164.23587 0.666613,0.66661 c 1.656532,-1.65653 4.342981,-1.65653 5.999513,0 l 0.666613,-0.66661 c -2.023169,-2.02317 -5.306236,-2.02317 -7.332739,0 z m 2.666451,2.66645 0.999919,0.99992 0.999918,-0.99992 c -0.549956,-0.55329 -1.446549,-0.55329 -1.999837,0 z m -1.333225,-1.33323 0.666612,0.66661 c 0.919925,-0.91992 2.413138,-0.91992 3.333063,0 l 0.666612,-0.66661 c -1.286561,-1.28656 -3.376392,-1.28656 -4.666287,0 z"
       id="path1402"
       style="display:inline;fill:#00a5c4;fill-opacity:1;stroke-width:0.33330625" />
    <text
       xml:space="preserve"
       style="font-style:normal;font-variant:normal;font-weight:normal;font-stretch:normal;font-size:4.93888855px;line-height:100%;font-family:'Droid Sans';-inkscape-font-specification:'Droid Sans';letter-spacing:0px;word-spacing:0px;display:inline;fill:#000000;fill-opacity:1;stroke:none;stroke-width:0.26458332"
       x="93.775887"
       y="165.2753"
       id="text1335"><tspan
         sodipodi:role="line"
         id="tspan1333"
         x="93.775887"
         y="165.2753"
         style="stroke-width:0.26458332">MRC-client</tspan></text>
    <text
       id="text1597"
       y="146.75441"
       x="93.775887"
       style="font-style:normal;font-variant:normal;font-weight:normal;font-stretch:normal;font-size:4.93888855px;line-height:100%;font-family:'Droid Sans';-inkscape-font-specification:'Droid Sans';letter-spacing:0px;word-spacing:0px;display:inline;fill:#000000;fill-opacity:1;stroke:none;stroke-width:0.26458332"
       xml:space="preserve"><tspan
         style="stroke-width:0.26458332"
         y="146.75441"
         x="93.775887"
         id="tspan1595"
         sodipodi:role="line">Hemma</tspan></text>
    <text
       xml:space="preserve"
       style="font-style:normal;font-variant:normal;font-weight:normal;font-stretch:normal;font-size:3.52777767px;line-height:100%;font-family:'Droid Sans';-inkscape-font-specification:'Droid Sans';letter-spacing:0px;word-spacing:0px;display:inline;fill:#000000;fill-opacity:1;stroke:none;stroke-width:0.26458332"
       x="93.927086"
       y="150.53423"
       id="text1331"><tspan
         sodipodi:role="line"
         id="tspan1329"
         x="93.927086"
         y="150.53423"
         style="stroke-width:0.26458332">Ansluten</tspan></text>
    <text
       xml:space="preserve"
       style="font-style:normal;font-variant:normal;font-weight:normal;font-stretch:normal;font-size:3.88055563px;line-height:100%;font-family:'Droid Sans';-inkscape-font-specification:'Droid Sans';letter-spacing:0px;word-spacing:0px;display:inline;fill:#000000;fill-opacity:1;stroke:none;stroke-width:0.26458332"
       x="93.738091"
       y="170.75595"
       id="text1339"><tspan
         sodipodi:role="line"
         id="tspan1337"
         x="93.738091"
         y="170.75595"
         style="stroke-width:0.26458332">Öppen</tspan></text>
    <text
       xml:space="preserve"
       style="font-style:normal;font-variant:normal;font-weight:normal;font-stretch:normal;font-size:3.88055563px;line-height:100%;font-family:'Droid Sans';-inkscape-font-specification:'Droid Sans';letter-spacing:0px;word-spacing:0px;display:inline;fill:#000000;fill-opacity:1;stroke:none;stroke-width:0.26458332"
       x="93.927086"
       y="190.41071"
       id="text1343"><tspan
         sodipodi:role="line"
         id="tspan1341"
         x="93.927086"
         y="190.41071"
         style="stroke-width:0.26458332">Utom räckhåll</tspan></text>
    <text
       id="text1566"
       y="185.38359"
       x="93.775887"
       style="font-style:normal;font-variant:normal;font-weight:normal;font-stretch:normal;font-size:4.93888855px;line-height:100%;font-family:'Droid Sans';-inkscape-font-specification:'Droid Sans';letter-spacing:0px;word-spacing:0px;display:inline;fill:#000000;fill-opacity:1;stroke:none;stroke-width:0.26458332"
       xml:space="preserve"><tspan
         style="stroke-width:0.26458332"
         y="185.38359"
         x="93.775887"
         id="tspan1564"
         sodipodi:role="line">Netgear 1234 AP</tspan></text>
    <path
       style="display:inline;opacity:1;vector-effect:none;fill:none;fill-opacity:1;stroke:#b3b3b3;stroke-width:0.25;stroke-linecap:butt;stroke-linejoin:miter;stroke-miterlimit:4;stroke-dasharray:none;stroke-dashoffset:0;stroke-opacity:1"
       d="M 74.461308,121.24107 H 167.25446"
       id="path1592"
       inkscape:connector-curvature="0" />
    <text
       id="text1601"
       y="210.51907"
       x="93.927086"
       style="font-style:normal;font-variant:normal;font-weight:normal;font-stretch:normal;font-size:3.88055563px;line-height:100%;font-family:'Droid Sans';-inkscape-font-specification:'Droid Sans';letter-spacing:0px;word-spacing:0px;display:inline;fill:#000000;fill-opacity:1;stroke:none;stroke-width:0.26458332"
       xml:space="preserve"><tspan
         style="stroke-width:0.26458332"
         y="210.51907"
         x="93.927086"
         id="tspan1599"
         sodipodi:role="line">Utom räckhåll</tspan></text>
    <text
       xml:space="preserve"
       style="font-style:normal;font-variant:normal;font-weight:normal;font-stretch:normal;font-size:4.93888855px;line-height:100%;font-family:'Droid Sans';-inkscape-font-specification:'Droid Sans';letter-spacing:0px;word-spacing:0px;display:inline;fill:#000000;fill-opacity:1;stroke:none;stroke-width:0.26458332"
       x="93.775887"
       y="205.49196"
       id="text1605"><tspan
         sodipodi:role="line"
         id="tspan1603"
         x="93.775887"
         y="205.49196"
         style="stroke-width:0.26458332">Sommarstugan</tspan></text>
    <text
       xml:space="preserve"
       style="font-style:normal;font-variant:normal;font-weight:normal;font-stretch:normal;font-size:3.88055563px;line-height:100%;font-family:'Droid Sans';-inkscape-font-specification:'Droid Sans';letter-spacing:0px;word-spacing:0px;display:inline;fill:#000000;fill-opacity:1;stroke:none;stroke-width:0.26458332"
       x="93.927086"
       y="230.62744"
       id="text1609"><tspan
         sodipodi:role="line"
         id="tspan1607"
         x="93.927086"
         y="230.62744"
         style="stroke-width:0.26458332">Utom räckhåll</tspan></text>
    <text
       id="text1613"
       y="225.60033"
       x="93.775887"
       style="font-style:normal;font-variant:normal;font-weight:normal;font-stretch:normal;font-size:4.93888855px;line-height:100%;font-family:'Droid Sans';-inkscape-font-specification:'Droid Sans';letter-spacing:0px;word-spacing:0px;display:inline;fill:#000000;fill-opacity:1;stroke:none;stroke-width:0.26458332"
       xml:space="preserve"><tspan
         style="stroke-width:0.26458332"
         y="225.60033"
         x="93.775887"
         id="tspan1611"
         sodipodi:role="line">Jobbet</tspan></text>
  </g>
</svg>
