<?xml version="1.0" encoding="UTF-8" standalone="no"?>
<!-- Generator: Adobe Illustrator 22.0.1, SVG Export Plug-In . SVG Version: 6.00 Build 0)  -->

<svg
   xmlns:dc="http://purl.org/dc/elements/1.1/"
   xmlns:cc="http://creativecommons.org/ns#"
   xmlns:rdf="http://www.w3.org/1999/02/22-rdf-syntax-ns#"
   xmlns:svg="http://www.w3.org/2000/svg"
   xmlns="http://www.w3.org/2000/svg"
   xmlns:sodipodi="http://sodipodi.sourceforge.net/DTD/sodipodi-0.dtd"
   xmlns:inkscape="http://www.inkscape.org/namespaces/inkscape"
   version="1.1"
   id="Ebene_1"
   x="0px"
   y="0px"
   viewBox="0 0 90.7 90.7"
   style="enable-background:new 0 0 90.7 90.7;"
   xml:space="preserve"
   sodipodi:docname="icon-opensource.svg"
   inkscape:version="0.92.3 (2405546, 2018-03-11)"><metadata
   id="metadata21"><rdf:RDF><cc:Work
       rdf:about=""><dc:format>image/svg+xml</dc:format><dc:type
         rdf:resource="http://purl.org/dc/dcmitype/StillImage" /><dc:title></dc:title></cc:Work></rdf:RDF></metadata><defs
   id="defs19" /><sodipodi:namedview
   pagecolor="#ffffff"
   bordercolor="#666666"
   borderopacity="1"
   objecttolerance="10"
   gridtolerance="10"
   guidetolerance="10"
   inkscape:pageopacity="0"
   inkscape:pageshadow="2"
   inkscape:window-width="885"
   inkscape:window-height="650"
   id="namedview17"
   showgrid="false"
   inkscape:zoom="4.6196253"
   inkscape:cx="45.349998"
   inkscape:cy="45.349998"
   inkscape:window-x="0"
   inkscape:window-y="29"
   inkscape:window-maximized="0"
   inkscape:current-layer="g14" />
<style
   type="text/css"
   id="style2">
	.st0{fill:#1D1D1B;}
	.st1{fill:#36BDA1;}
</style>
<g
   id="g14">
	<g
   id="g8"
   style="fill:#4d4d4d">
		<path
   class="st0"
   d="M21.8,46.6h2c0-11.9,9.7-21.6,21.6-21.6v-2C32.4,23.1,21.8,33.6,21.8,46.6z"
   id="path4"
   style="fill:#4d4d4d" />
		<path
   class="st0"
   d="M45.4,17.2c-16.2,0-29.4,13.2-29.4,29.4c0,11.5,6.8,22,17.3,26.8c0.1,0.1,0.3,0.1,0.4,0.1    c0.1,0,0.2,0,0.4-0.1c0.3-0.1,0.5-0.3,0.6-0.5l6.4-15.4l-1.8-0.8l-6,14.4C23.9,66.5,17.9,57,17.9,46.6c0-15.1,12.3-27.4,27.4-27.4    s27.4,12.3,27.4,27.4c0,9.2-4.6,17.7-12.2,22.8l1.1,1.7c8.2-5.5,13.1-14.6,13.1-24.5C74.8,30.4,61.6,17.2,45.4,17.2z"
   id="path6"
   style="fill:#4d4d4d" />
	</g>
	<g
   id="g12">
		<path
   class="st1"
   d="M56.1,72.9l-6.4-15.4c-0.2-0.5,0-1,0.5-1.3c3.6-1.9,5.9-5.5,5.9-9.6c0-5.9-4.8-10.8-10.8-10.8    c-5.9,0-10.8,4.8-10.8,10.8c0,2.7,1,5.2,2.8,7.2l-1.5,1.3c-2.1-2.4-3.3-5.4-3.3-8.6c0-7,5.7-12.8,12.8-12.8    c7,0,12.8,5.7,12.8,12.8c0,4.5-2.3,8.6-6.2,10.9l6,14.6L56.1,72.9z"
   id="path10"
   style="fill:#800000" />
	</g>
</g>
</svg>