<?xml version="1.0" encoding="UTF-8" standalone="no"?>
<!-- Generator: Adobe Illustrator 19.1.0, SVG Export Plug-In . SVG Version: 6.00 Build 0)  -->

<svg
   xmlns:dc="http://purl.org/dc/elements/1.1/"
   xmlns:cc="http://creativecommons.org/ns#"
   xmlns:rdf="http://www.w3.org/1999/02/22-rdf-syntax-ns#"
   xmlns:svg="http://www.w3.org/2000/svg"
   xmlns="http://www.w3.org/2000/svg"
   xmlns:sodipodi="http://sodipodi.sourceforge.net/DTD/sodipodi-0.dtd"
   xmlns:inkscape="http://www.inkscape.org/namespaces/inkscape"
   version="1.1"
   id="Ebene_1"
   x="0px"
   y="0px"
   width="90"
   height="90"
   viewBox="0 0 90 90"
   enable-background="new 0 0 500 500"
   xml:space="preserve"
   sodipodi:docname="icon-flexible.svg"
   inkscape:version="0.92.3 (2405546, 2018-03-11)"><metadata
   id="metadata13"><rdf:RDF><cc:Work
       rdf:about=""><dc:format>image/svg+xml</dc:format><dc:type
         rdf:resource="http://purl.org/dc/dcmitype/StillImage" /><dc:title></dc:title></cc:Work></rdf:RDF></metadata><defs
   id="defs11" /><sodipodi:namedview
   pagecolor="#ffffff"
   bordercolor="#666666"
   borderopacity="1"
   objecttolerance="10"
   gridtolerance="10"
   guidetolerance="10"
   inkscape:pageopacity="0"
   inkscape:pageshadow="2"
   inkscape:window-width="1468"
   inkscape:window-height="839"
   id="namedview9"
   showgrid="false"
   inkscape:zoom="6.7555556"
   inkscape:cx="42.409539"
   inkscape:cy="45"
   inkscape:window-x="0"
   inkscape:window-y="29"
   inkscape:window-maximized="0"
   inkscape:current-layer="Ebene_1" />


<path
   inkscape:connector-curvature="0"
   d="m 57.595256,39.769458 c -0.601927,-1.556708 -1.100074,-2.864344 -1.826538,-4.732394 5.251298,1.660489 10.025204,3.154929 15.151965,4.773906 -2.51149,4.670127 -4.877687,9.049667 -7.451446,13.865086 C 62.701261,52.015567 62.12009,50.7702 61.455894,49.338028 51.513714,54.194959 49.313566,63.099333 48.690883,73 H 38.665679 c 0.37361,-14.467013 4.939955,-26.422536 18.929577,-33.230542"
   id="path2"
   style="fill:#800000;fill-opacity:1;stroke-width:1" /><path
   inkscape:connector-curvature="0"
   d="M 36.610823,59.861379 C 32.708673,54.02891 30.550037,51.724981 25.651594,49.296515 24.987398,50.666419 24.406227,51.89103 23.575982,53.613788 20.939956,48.798369 18.532246,44.35656 16,39.686434 c 5.168273,-1.577465 10.004448,-3.030393 15.214233,-4.628614 -0.664196,1.826538 -1.141586,3.196442 -1.473684,4.109711 3.549296,2.905856 8.198666,6.081542 11.519644,9.776131 -1.286879,2.51149 -3.362491,6.89103 -4.64937,10.917717"
   id="path4"
   style="fill:#4d4d4d;stroke-width:1" /><path
   inkscape:connector-curvature="0"
   d="m 38.520386,29.76501 c -1.722758,-0.145292 -3.092661,-0.249073 -5.085249,-0.394366 3.549296,-4.317272 6.766494,-8.219422 10.191253,-12.370645 3.341735,4.130467 6.496665,8.053373 9.983692,12.370645 -1.909562,0.145293 -3.279466,0.249074 -5.002224,0.394366 0,2.698295 0.06227,4.732395 0.04151,7.368422 -0.02076,2.532246 0.04151,3.798369 0.04151,3.798369 -2.0341,1.141586 -3.90215,3.071905 -5.085249,4.836175 0,0 -3.113417,-3.196442 -5.251297,-4.773907 0.02076,0 0.166049,-8.053373 0.166049,-11.229059"
   id="path6"
   style="fill:#4d4d4d;fill-opacity:1;stroke-width:1" />
</svg>